<svg xmlns="http://www.w3.org/2000/svg" width="400.963" height="250.599" viewBox="0 0 400.963 250.599">
  <path id="bh" d="M367.545,38.413H250.6V5H367.545Zm28.836,167.066c-7.384,21.669-33.9,50.12-85.22,50.12-51.356,0-92.955-28.886-92.955-94.81,0-65.323,38.843-98.9,91.318-98.9,51.49,0,82.932,29.771,89.8,73.943,1.3,8.454,1.821,19.847,1.587,35.752H266.8c2.172,53.645,58.189,55.332,76.65,33.9h52.926ZM267.974,138.653h82.948c-1.754-25.845-18.979-37.072-41.382-37.072C285.048,101.581,271.5,114.411,267.974,138.653ZM108.025,255.4H0V5.351H116.161C207.646,6.7,209.384,96.3,161.6,120.727,219.424,141.777,221.362,255.4,108.025,255.4ZM50.12,105.24H110c41.9,0,48.549-50.12-5.212-50.12H50.12v50.12Zm56.652,50.12H50.12v50.387h55.817C156.975,205.746,153.851,155.359,106.772,155.359Z" transform="translate(0 -5)" fill="#fff"/>
</svg>