<svg id="Component_2_1" data-name="Component 2 – 1" xmlns="http://www.w3.org/2000/svg" width="302.72" height="277.301" viewBox="0 0 302.72 277.301">
  <path id="Path_1" data-name="Path 1" d="M550.751,442.4s24.98,31.171,56.754,53.707,70.343,36.437,70.343,36.437,38.563-15.1,69.9-37.074,56.894-53.547,56.894-53.547-9.4,1.235-17.371,0a47.785,47.785,0,0,1-14.5-4.94s18.168-6.375,31.873-18.008,14.308-25.081,14.308-25.081a143.725,143.725,0,0,1-16.061,5.638A148.885,148.885,0,0,1,786.037,403s16.532-12.868,29.282-28.645,14.343-40.638,14.343-40.638-12.86,7.695-24.064,11.634a200.373,200.373,0,0,1-21.661,6.181,152.948,152.948,0,0,0,28.992-37.9c12.431-23.108,13.373-58.39,13.373-58.39s-31.222,31.935-55.287,46.438-63.757,30.24-63.757,30.24l30.811,27.31V461.119s-2.247,10.416-16.777,16.456-43.029,7.537-43.029,7.537-25.983-1.5-41.913-7.537-20.125-16.456-20.125-16.456V359.231l31.511-27.31a400.693,400.693,0,0,1-56.371-26.96c-30.96-17.756-61.973-49.718-61.973-49.718a233.475,233.475,0,0,0,10.859,49.718c8.924,26.362,31.857,46.567,31.857,46.567a74.6,74.6,0,0,1-21.358-5.7c-11.292-4.9-23.809-13.9-23.809-13.9a75.614,75.614,0,0,0,15.541,43.546c15.937,20.4,29.625,27.53,29.625,27.53a140.847,140.847,0,0,1-18.207-3.147,158.768,158.768,0,0,1-18.207-5.957s2.644,16.315,19.378,28.268,28.367,14.821,28.367,14.821A46.158,46.158,0,0,1,568.62,442.4C560.97,443.517,550.751,442.4,550.751,442.4Z" transform="translate(-526.942 -255.243)" fill="#fff"/>
  <g id="Component_1_1" data-name="Component 1 – 1" transform="translate(104.468 85.641)">
    <path id="Path_2" data-name="Path 2" d="M700.575,378.973H719.7s.16-11.833-5.577-21.355c-2.329-3.866-2.709-5.379-7.49-9.243a83.8,83.8,0,0,0-11.761-7.49H662.486a39.729,39.729,0,0,0-13.705,9.722c-5.578,6.494-6.853,7.45-8.606,16.255s-1.243,19.6-1.243,19.6H631.41v69.962s5.14,9.8,23.267,13.068,31.4,3.267,49.244,0,22.152-13.068,22.152-13.068V386.464H659.937s-.319-15.459,0-16.733,3.9-6.972,10.359-9.721,16.414-.8,16.414-.8a16.889,16.889,0,0,1,9.243,6.216C699.419,370.368,700.575,378.973,700.575,378.973Z" transform="translate(-631.41 -340.885)" fill="#fff" stroke="#fff" stroke-width="1"/>
  </g>
</svg>