<svg id="Component_2_1" data-name="Component 2 – 1" xmlns="http://www.w3.org/2000/svg" width="116.903" height="114.264" viewBox="0 0 116.903 114.264">
  <g id="g10" transform="translate(0 114.891)">
    <g id="g12">
      <path id="path14" d="M63.09-23.566c-4.665,0-8.507-4.282-8.507-9.542s3.768-9.541,8.507-9.541c4.777,0,8.583,4.32,8.507,9.541,0,5.259-3.73,9.542-8.507,9.542Zm-31.455,0c-4.665,0-8.508-4.282-8.508-9.542s3.769-9.541,8.508-9.541c4.776,0,8.582,4.32,8.507,9.541C40.142-27.848,36.373-23.566,31.635-23.566ZM80.139-66.8A78.1,78.1,0,0,0,60.87-72.78a.294.294,0,0,0-.31.146,54.651,54.651,0,0,0-2.4,4.929,72.054,72.054,0,0,0-21.643,0,49.893,49.893,0,0,0-2.437-4.929.3.3,0,0,0-.309-.146A77.856,77.856,0,0,0,14.5-66.8a.274.274,0,0,0-.126.109C2.1-48.358-1.258-30.474.391-12.811a.328.328,0,0,0,.123.221A78.5,78.5,0,0,0,24.153-.641a.3.3,0,0,0,.332-.109,56.043,56.043,0,0,0,4.836-7.866.3.3,0,0,0-.164-.417,51.752,51.752,0,0,1-7.385-3.52.3.3,0,0,1-.03-.5c.5-.372.993-.759,1.467-1.149a.294.294,0,0,1,.306-.042,55.978,55.978,0,0,0,47.576,0,.292.292,0,0,1,.308.038c.475.391.971.781,1.471,1.154a.3.3,0,0,1-.027.5,48.461,48.461,0,0,1-7.388,3.516.3.3,0,0,0-.16.421A63.135,63.135,0,0,0,70.127-.754a.3.3,0,0,0,.332.113A78.222,78.222,0,0,0,94.135-12.59a.3.3,0,0,0,.123-.219c1.974-20.419-3.306-38.157-14-53.882a.249.249,0,0,0-.123-.112" fill="#fff"/>
    </g>
  </g>
  <g id="Component_1_1" data-name="Component 1 – 1" transform="matrix(0.978, -0.208, 0.208, 0.978, 4.07, 19.904)">
    <path id="path1" d="M8.369,37.594A28.6,28.6,0,0,0,3.5,36.427c-1.848-.217-2.254.47-2.518.3a.9.9,0,0,0-.4-.087c-.878,0-1.113.021-1.174.124a.257.257,0,0,1-.2.113c-.081,0-.067-.048.035-.116.266-.179.025-.137-.34.059a2.388,2.388,0,0,1-.589.221c-.2.034-.254.113-.234.325.022.235.008.249-.086.083-.129-.227-.525-.079-.987.369a.962.962,0,0,1-.339.243A6.313,6.313,0,0,0-5.2,40.224c.015.054-.012.073-.06.042-.1-.066-.3.154-.352.4a.479.479,0,0,1-.17.259c-.073.048-.082.09-.019.093s.015.083-.105.178-.187.205-.149.245-.032.186-.156.326a.616.616,0,0,0-.176.451q.05.2-.107.136c-.1-.039-.157.017-.157.147a.733.733,0,0,1-.155.4c-.674.812-3.413,6.967-3.309,7.436.046.207.035.26-.033.154s-.128-.117-.175-.038a.152.152,0,0,0,.05.2c.082.053.062.149-.062.292s-.145.239-.062.292a.145.145,0,0,1,.056.191,3.288,3.288,0,0,0-.2.906c0,.081-.045.148-.093.148s-.068.106-.044.236.006.236-.039.236-.088.093-.094.207c-.03.543-.095.857-.175.857-.049,0-.089.11-.089.243,0,.154.048.212.131.159s.1-.032.049.054-.124.111-.176.078c-.09-.058-.268.588-.4,1.465a2.264,2.264,0,0,1-.121.5c-.032.054.034.1.147.1.152,0,.167.027.057.1s-.122.208-.073.411c.042.175.127.279.194.236s.084-.019.03.073c-.113.19-.158,1.073-.052,1,.044-.028.106.055.138.184s.013.205-.044.169-.1.02-.1.125.043.164.095.13.095.019.095.116-.066.151-.145.119-.122.006-.083.113.1.146.145.117.083.022.083.113-.043.139-.095.106-.094.022-.094.123c0,.165.07.206.3.174.084-.012.263.26.266.4,0,.053-.057.057-.13.011-.092-.059-.109,0-.058.2a2.591,2.591,0,0,1,.075.38c0,.053.047.066.1.03s.132.018.169.119.123.149.19.105.055.04-.028.185c-.124.218-.124.274,0,.32a.645.645,0,0,1,.255.346c.061.168.159.256.232.209.088-.057.08-.115-.028-.2s-.114-.1.031-.054a.325.325,0,0,0,.309-.069c.091-.094.111-.06.077.127-.026.141,0,.257.047.257s.129.092.17.2c.055.149,0,.127-.214-.08-.159-.156-.29-.231-.29-.167A1.632,1.632,0,0,0-9.04,63a.129.129,0,0,0,.118-.136c0-.082.083-.058.207.059s.244.158.289.111.049,0,.01.111a.569.569,0,0,0,.047.41c.073.13.121.153.123.058.006-.247.344-.566.344-.325,0,.1-.051.186-.113.186-.169,0-.137.195.066.406.22.229.428.12.352-.183-.031-.123-.01-.253.047-.289s.1.065.1.226a.517.517,0,0,0,.085.342c.047.027.017.032-.066.01s-.13.027-.1.108a.231.231,0,0,0,.208.148.335.335,0,0,1,.252.15c.051.083.14.12.2.082s.106-.016.106.047c0,.1.628.317.707.242a.8.8,0,0,1,.314.134.839.839,0,0,0,.425.133c.078-.017.142.019.142.08,0,.181.486.256.665.1.143-.123.147-.106.034.115-.172.336-.171.339.1.36.14.011.2-.032.153-.111s-.024-.1.056-.044a.153.153,0,0,1,.068.2c-.036.061-.016.11.044.11s.082.11.048.243c-.041.165-.12.22-.244.17-.142-.056-.153-.041-.05.068.181.19.5.05.419-.182-.037-.1-.01-.188.059-.2A.772.772,0,0,0-3.4,65.8a.152.152,0,0,1,.216.05c.048.081.033.107-.036.062-.13-.084-.408.2-.3.307.036.038-.04.127-.17.2a.452.452,0,0,0-.094.668c.04.042.049-.063.019-.234-.054-.313.11-.436.216-.162.046.118.059.118.066,0,0-.081.058-.148.119-.148s.082.093.048.207c-.059.2-.056.2.066,0a.42.42,0,0,1,.285-.207.308.308,0,0,0,.239-.136c.054-.091.028-.105-.078-.042-.124.074-.13.061-.027-.054.154-.174.419-.05.3.143-.049.084-.01.1.11.055.1-.041.182-.037.175.009-.042.294.034.516.16.465.191-.077.686.345.592.5-.04.068-.112.1-.16.068s-.087.021-.087.116.043.172.095.172.094-.06.094-.132.1-.1.243-.066c.182.05.211.033.113-.069a.573.573,0,0,1-.129-.344c0-.138-.058-.186-.172-.141s-.151.015-.094-.142.035-.194-.112-.135c-.113.045-.19.018-.192-.068s-.042-.079-.111.033c-.089.143-.11.126-.112-.089,0-.33.111-.335.493-.021.164.135.3.184.3.11s.07-.062.175.048a.3.3,0,0,1,.056.415c-.079.154-.081.257-.005.305a.327.327,0,0,1,.113.251c0,.1-.04.151-.09.119s-.1.045-.106.17.035.228.1.228.082-.053.043-.118c-.061-.1.059-.139.369-.11.047,0,.07.084.052.177a.13.13,0,0,0,.113.171c.117,0,.116.022,0,.1s-.119.113.019.168c.165.066.169-.372.007-.646-.031-.053.022-.064.118-.025s.147.117.113.175.012.075.1.039a.2.2,0,0,1,.24.061c.041.07-.006.16-.105.2-.138.055-.15.109-.051.234.158.2.369.087.282-.149-.035-.094-.019-.143.036-.108s.225-.041.38-.167.314-.2.353-.156.072-.008.072-.109a.3.3,0,0,1,.179-.256c.266-.107.41-.087.331.045-.04.067.006.087.107.047.211-.085.231.086.034.293-.114.119-.1.134.048.074a.4.4,0,0,0,.193-.607c-.072-.091-.109-.189-.081-.218s.144.113.259.316.156.334.091.293c-.144-.093-.295.469-.179.665.133.225.13.609-.007.717-.079.062-.054.076.065.036a.2.2,0,0,1,.252.077c.037.085.055.07.046-.036-.021-.252.142-.6.248-.532.049.032.12-.025.157-.125s.023-.154-.032-.119-.124-.07-.154-.233c-.073-.4.032-.424.336-.092.138.15.207.274.154.274s-.127.08-.163.177c-.046.125.009.177.186.175s.209-.03.1-.1-.109-.117.048-.179c.193-.077.384.093.384.342,0,.065-.049.038-.11-.059-.091-.146-.11-.135-.111.065a.609.609,0,0,1-.111.356.22.22,0,0,0,.011.29c.1.147.109.142.056-.031-.035-.114-.016-.207.043-.207.16,0,.474-.7.383-.849-.05-.084-.028-.1.061-.043s.112.206.067.394c-.064.265-.051.284.1.15.211-.182.238-.006.035.231-.121.141-.112.142.059.007s.232-.129.406.035c.224.212.378.149.281-.114-.034-.091,0-.166.071-.166s.1-.053.062-.118-.021-.118.038-.118.138.083.175.184.021.153-.037.116a.127.127,0,0,0-.176.053c-.039.066.011.12.112.12s.151.054.112.12a.123.123,0,0,1-.165.06c-.051-.033-.122.016-.156.109-.041.112.009.163.15.152.117-.009.189-.055.162-.1a.122.122,0,0,1,.057-.155.129.129,0,0,1,.179.052c.047.079.154.062.3-.048a.5.5,0,0,1,.408-.1c.125.05.152.022.092-.1-.046-.092-.009-.073.082.044.153.195.181.2.349.021s.183-.164.183-.015a.286.286,0,0,1-.142.242c-.078.036-.039.055.085.042a.679.679,0,0,1,.377.074c.1.063.244.006.413-.159s.29-.212.338-.131c.074.124.058.141-.155.172a.385.385,0,0,0-.189.1c-.08.084-.023.107.321.136a.464.464,0,0,1,.267.179.274.274,0,0,0,.337.082c.179-.071.186-.1.045-.195-.092-.061-.116-.11-.053-.11.253,0,.424.2.236.272-.259.1-.221.31.047.257.125-.025.227.008.227.073s.048.088.106.05a.123.123,0,0,1,.172.044.153.153,0,0,1-.066.2q-.133.086-.041-.069c.053-.09.047-.126-.014-.087a.673.673,0,0,0-.134.4,6.612,6.612,0,0,1-.127.851c0,.024-.081-.018-.169-.094-.109-.094-.183-.1-.234-.015-.04.068.006.131.1.139a.807.807,0,0,1,.5.149c.12.079.136.043.073-.164-.051-.169-.039-.239.034-.192s.093-.03.059-.192c-.045-.212-.032-.23.063-.089s.114.083.095-.233.026-.421.165-.45c.188-.04.219.146.066.4a.18.18,0,0,0,.174.283c.059,0,.084-.133.054-.3-.046-.253-.018-.288.2-.246a.744.744,0,0,0,.5-.128c.187-.136.234-.141.21-.019-.019.094.052.142.179.119s.18.013.143.075c-.1.167.343.252.5.1.1-.1.123-.077.09.1a.225.225,0,0,1-.266.21c-.122-.015-.159,0-.08.04a.129.129,0,0,1,.075.179c-.041.07-.13.06-.23-.027-.131-.113-.149-.1-.095.044a.489.489,0,0,0,.237.252c.093.037.136.122.1.188s-.108.1-.152.069-.161.095-.259.274c-.138.251-.145.326-.032.326.081,0,.145-.031.14-.069-.025-.24.062-.356.388-.524.2-.1.284-.191.18-.192s-.178-.069-.167-.15c.033-.226.186-.443.312-.443.062,0,.084.05.048.111s.025.171.135.243c.143.094.16.15.059.195a.282.282,0,0,0-.133.259c.006.123.03.141.066.049a.261.261,0,0,1,.246-.139c.119.006.136.032.047.069a.121.121,0,0,0-.078.168c.035.06-.041.108-.169.108-.334,0-.289.174.05.194.168.01.283-.047.283-.14s.128-.153.336-.147c.185.005.313.049.284.1s.037.159.146.248c.181.148.183.143.033-.056s-.143-.214,0-.193c.275.041.447,0,.447-.1,0-.054-.173-.106-.385-.114-.5-.02-.654-.057-.817-.2-.2-.178-.062-.313.184-.176a.7.7,0,0,0,.3.1.326.326,0,0,1,.146.008,2.323,2.323,0,0,0,.261.064c.3.06.759.4.761.565,0,.1.038.086.106-.028.087-.143.155-.116.4.154.295.331.325.322.3-.1-.011-.232-.009-.232.082-.005.077.193.11.2.2.059.123-.2.5-.526.5-.427a1.023,1.023,0,0,1-.248.31.993.993,0,0,0-.27.394c-.028.2.423.235.554.048.066-.094.078-.073.035.064s0,.207.109.207.14.056.092.136-.031.1.04.058a.128.128,0,0,1,.187.07c.036.082.039.038.008-.1-.037-.159,0-.246.1-.246s.138.091.107.246c-.044.222-.037.226.078.039.2-.323.537-.245.972.222.22.236.428.4.463.362.107-.112-.08-.327-.211-.243-.073.047-.091.024-.044-.055.059-.1.135-.1.294.005.118.077.189.182.158.234s.027.094.127.094.157.045.124.1c-.077.129.43.372.777.372a.363.363,0,0,1,.331.177c.036.1.121.177.189.177s.092-.053.054-.117,0-.088.092-.052a.36.36,0,0,0,.338-.12.578.578,0,0,1,.3-.184c.163,0,.155.437-.01.543-.089.058-.111.005-.069-.165.06-.241.053-.242-.221-.056-.308.21-.07.59.282.449.083-.033.123-.013.089.044-.132.223.711.4.881.188.056-.07.074-.046.045.059a.242.242,0,0,1-.264.151c-.118-.014-.151,0-.073.04s.12.1.093.149.076.094.23.107a.329.329,0,0,0,.344-.152.277.277,0,0,1,.251-.17c.146,0,.131.047-.069.192-.271.2-.35.453-.113.367.305-.111.537.329.335.636-.152.231-.154.253-.01.132s.2-.114.323,0c.1.092.124.1.077.01-.109-.2.229-.29.381-.1a.317.317,0,0,1,.047.318c-.047.084-.046.116,0,.072s.212-.031.365.029.252.066.22.012.016-.1.107-.1.14.026.109.058c-.128.133.2.353.459.3.152-.029.277,0,.277.061s.107.092.239.066c.193-.039.227,0,.179.191s-.026.209.081.116a.748.748,0,0,1,.815.117.371.371,0,0,0,.344.061c.157-.063.164-.046.044.1s-.114.18.012.182.129.019,0,.1-.114.115.034.174c.1.041.161.032.13-.019a.3.3,0,0,1,.041-.255.607.607,0,0,0,0-.438c-.078-.215-.062-.276.073-.276.1,0,.142.053.1.118s.038.118.17.118c.152,0,.21-.05.159-.136s-.031-.1.045-.055c.157.1.048.43-.13.395-.072-.014-.117.045-.1.131s-.021.123-.085.082-.116.006-.116.106.065.155.16.117.19.036.238.193c.057.187.112.221.2.127.165-.172.342-.167.239.006-.051.086-.031.1.055.049a.335.335,0,0,0,.069-.343c-.058-.224-.051-.23.058-.049.068.114.176.207.239.207s.083-.053.044-.118-.013-.118.057-.118.106.137.075.346c-.035.228,0,.368.106.41.178.071.219-.113.05-.222-.149-.1.235-.5.449-.474.185.023.185.226,0,.25l-.211.03c-.054.008-.074.144-.045.3.037.2.106.266.23.216s.149-.024.095.067c-.12.2.106.169.271-.039.114-.143.111-.178-.014-.179s-.124-.023.009-.11c.243-.161.364-.026.223.249-.1.2-.076.293.133.525.241.268.526.4.4.186-.032-.054.014-.1.1-.1s.134.044.1.1c-.091.153.12.116.279-.049.114-.118.129-.11.073.044a.194.194,0,0,0,.114.265c.1.04.151.128.112.2s0,.107.078.089.134.043.115.135c-.03.145-.008.145.164,0,.109-.092.167-.114.13-.048a.412.412,0,0,0,.092.348c.088.125.16.174.16.107,0-.168.485-.134.623.044a.655.655,0,0,0,.366.184.737.737,0,0,1,.331.12c.253.264.831-.222.646-.543-.062-.107-.038-.106.092,0,.1.081.2.134.223.118a3.09,3.09,0,0,1-.328.356c-.411.418-.409.441.023.269.2-.08.281-.076.262.015a.185.185,0,0,0,.13.189c.1.036.127.008.079-.072s-.016-.107.086-.066c.211.084.317.494.147.566-.071.031-.04.06.069.065s.2-.047.2-.116.057-.089.125-.044c.091.059.089.1-.005.165-.2.129.171.4.446.325.148-.04.228,0,.228.1a.168.168,0,0,0,.17.166c.094,0,.17-.053.17-.118a.119.119,0,0,1,.12-.118c.066,0,.089.053.05.118s-.02.118.041.118a.22.22,0,0,0,.168-.148c.032-.083.061-.051.066.073.007.164-.049.2-.218.159-.125-.034-.2-.017-.168.038s-.031.155-.141.222c-.306.186-.1.152.26-.042.174-.094.353-.148.4-.119s.111-.027.146-.124.193-.169.38-.159l.315.018-.312.049c-.313.05-.4.2-.2.326a.26.26,0,0,1,.048.273c-.05.168-.03.164.118-.026.1-.126.179-.166.179-.089a.154.154,0,0,0,.163.141.316.316,0,0,1,.245.138c.055.093.02.113-.106.063-.1-.042-.189-.018-.189.053s.1.1.221.068a.556.556,0,0,1,.425.1.67.67,0,0,0,.487.1c.223-.048.247-.035.113.064s-.129.126.077.128a.66.66,0,0,1,.411.173c.091.094.2.136.241.092s.116-.012.165.069a.607.607,0,0,0,.419.174.713.713,0,0,1,.447.18c.09.119.191.125.442.026.278-.11.306-.1.19.041s-.07.2.221.355.346.16.292.011c-.037-.1,0-.174.093-.174s.142.093.124.207c-.049.316.053.412.254.242.136-.115.16-.116.1-.006-.054.094-.018.148.1.148s.153.054.1.148-.024.1.107-.015c.105-.089.192-.123.192-.074s.089.015.2-.074c.176-.143.182-.141.058.026-.077.1-.1.231-.057.285s.024.061-.05.017a.148.148,0,0,0-.205.04c-.039.066-.017.12.049.12a.385.385,0,0,1,.4.2.713.713,0,0,0,.388.216.7.7,0,0,1,.34.146c.107.151.605.415.524.277-.042-.07-.026-.127.035-.127a.171.171,0,0,1,.149.089c.079.185.784.628.89.56.061-.039.111-.021.111.041s.079.144.176.183c.118.048.15.022.1-.076-.044-.08.039-.019.183.136.254.274.267.275.429.059.133-.178.153-.183.1-.024-.072.22.173.5.318.362.051-.048.058-.024.015.054s.026.2.169.28c.219.122.238.112.171-.083-.052-.152-.006-.128.147.075a.891.891,0,0,0,.342.31l.24.03c.066.008.089.068.05.133s-.016.118.05.118a.138.138,0,0,1,.121.148c0,.267.862.675,1.038.491a.216.216,0,0,1,.321-.039c.141.1.133.113-.045.084a.239.239,0,0,0-.266.117c-.028.083-.008.144.045.135.187-.032.606.157.606.273,0,.065.107.089.238.053s.208-.034.172,0c-.124.129.319.375.458.254.087-.075.161-.066.216.028s.036.111-.047.058c-.208-.134-.152.064.068.238a.8.8,0,0,0,.4.161c.109,0,.2.052.2.11,0,.111.6.366.864.366.091,0,.125-.081.086-.207-.049-.159-.038-.169.047-.045s.133.122.234-.059c.068-.122.124-.158.127-.08a.281.281,0,0,1-.116.218.206.206,0,0,0,.1.366l.258.029c.069.008.093.1.054.209-.058.158-.041.168.091.054.161-.139.4.036.258.187-.1.1.426.593.728.685.2.062.163,0-.154-.228-.235-.172-.4-.365-.358-.43.073-.123.369.062.537.337a.4.4,0,0,0,.312.148c.122,0,.221.059.221.131s.079.1.176.06.147-.022.1.059,0,.1.164.05c.226-.075.3.025.252.329-.009.054.036.064.1.023s.116-.01.116.07.033.11.075.067.143-.018.227.054c.113.1.152.1.152-.009s.065-.074.179.046c.1.1.222.159.274.126s.12.006.152.087c.046.118.059.118.066,0a.147.147,0,0,1,.129-.148c.066,0,.089.053.05.118-.064.107.089.17.316.13a.714.714,0,0,1,.309.107c.178.1.207.088.153-.058-.037-.1.09-.037.282.139s.318.349.28.385-.092,0-.119-.082a.21.21,0,0,0-.167-.148c-.064,0-.086.083-.048.184s.023.155-.032.12c-.111-.071-.279.119-.389.442-.047.138-.03.185.051.133s.044.048-.055.2a1.677,1.677,0,0,0-.214.517,1.246,1.246,0,0,1-.123.38c-.048.081-.047.149,0,.15s.021.048-.064.1a.6.6,0,0,0-.154.441,1,1,0,0,1-.086.457c-.274.369-.415,2.28-.151,2.053.171-.147.175-.137.05.107-.076.148-.2.237-.274.2s-.008.046.147.19c.24.221.249.25.057.188s-.225-.022-.213.487c.021.837.026.854.241.781.167-.056.171-.047.028.058-.185.136-.263.961-.092.961.058,0,.069.061.025.135-.055.093.011.117.21.077s.273-.012.236.088c-.03.08-.153.119-.275.085-.238-.065-.195.289.057.469.082.058.075.087-.02.089-.3,0-.123.364.274.562.413.206.616.645.373.8-.071.046-.1-.038-.065-.216a.329.329,0,0,0-.228-.423c-.386-.183-.482-.159-.212.053.2.154.2.2.057.3-.115.083-.128.141-.04.179.071.031.1.162.07.293-.043.173.007.256.182.3.133.036.242.116.242.177s-.04.085-.09.054c-.163-.105-.125.379.041.523a.614.614,0,0,1,.17.392c.008.244.01.245.1.015a.532.532,0,0,0,.042-.325c-.075-.135.167-.106.248.03.039.065.027.118-.026.118-.144,0-.168.714-.03.888a.34.34,0,0,0,.33.094.275.275,0,0,1,.3.09c.056.095.041.117-.044.063s-.131-.025-.131.048-.046.1-.1.065-.086.027-.065.141.042.277.047.362.059.122.122.082.113.008.113.107a.442.442,0,0,0,.255.309c.23.116.236.113.057-.038-.255-.215-.25-.264.029-.286.193-.015.218.036.166.344-.049.289-.027.348.11.293.264-.106.425.291.195.48-.163.134-.144.144.141.076.225-.054.3-.037.252.051-.042.071.023.185.145.254a.72.72,0,0,1,.295.362c.04.131.12.208.178.17s.105,0,.105.073a.723.723,0,0,0,.244.361c.134.122.185.221.113.221A.122.122,0,0,0,60,111.1c0,.061.1.092.22.067.163-.033.2,0,.151.144-.045.121-.024.159.057.107s.183.027.252.161.173.212.232.174.108-.01.108.063.045.1.1.067c.134-.087.373.224.267.346-.046.053,0,.064.109.025.134-.05.174-.022.132.093-.072.2.295.759.5.765.078,0,.142.044.142.093s.107.159.239.245.2.1.163.028-.018-.127.052-.127.1-.051.059-.113a.233.233,0,0,0-.261-.048c-.156.052-.162.041-.035-.053a.3.3,0,0,1,.369.017c.226.147.277.315.1.315s-.133.2.062.281c.1.039.153.031.125-.017s.021-.156.107-.24c.162-.156.211-.073.17.287a.235.235,0,0,0,.163.205c.118.047.154.021.107-.075-.039-.08.008-.045.1.079.16.205.182.208.248.027.052-.141.113-.164.212-.078.076.066.164.094.194.062s.056.021.056.117c0,.134-.036.144-.154.042-.085-.073-.187-.1-.227-.057-.1.107-.008.18.312.242a2.616,2.616,0,0,1,.333.08,1.572,1.572,0,0,0,.453.1c.151.014.151.029,0,.137s-.151.118,0,.091a.782.782,0,0,1,.418.114c.156.09.273.1.316.028s-.062-.149-.22-.19c-.3-.079-.383-.33-.155-.476.088-.057.109-.022.064.1a.19.19,0,0,0,.1.256c.24.1.29.086.215-.041a.136.136,0,0,1,.044-.181c.061-.039.09.036.065.169s.016.24.107.24.144.086.135.19.1.237.245.294.235.06.2-.005a.138.138,0,0,1,.051-.183c.063-.041.115.008.115.108,0,.314,1.082.5,1.242.208.1-.172.112-.163.115.067,0,.174.072.265.2.264.169,0,.174-.018.028-.116s-.141-.115.028-.116c.136,0,.2-.1.2-.3,0-.162.047-.3.105-.3s.065.147,0,.383c-.142.516-.136.547.093.508a.521.521,0,0,1,.362.1c.125.1.143.1.078-.015-.1-.167.216-.152.486.023.125.081.144.054.085-.122-.065-.194-.056-.2.066-.049.165.206.6.319.487.126-.041-.07,0-.126.091-.126.116,0,.147.08.1.266-.057.233-.043.247.117.11a.339.339,0,0,0,.114-.344c-.046-.125-.024-.159.064-.1a.332.332,0,0,1,.133.251c0,.091.115.224.255.3.23.116.236.113.057-.038-.242-.2-.26-.516-.03-.516.131,0,.139.037.037.165s-.079.151.172.086c.2-.052.3-.032.3.059s-.051.1-.113.065-.113.017-.113.126c0,.261.3.021.4-.325.069-.226.089-.221.416.1.3.291.326.3.212.07-.075-.151-.086-.266-.024-.266a1.1,1.1,0,0,0,.306-.079c.146-.058.174-.038.105.077s-.049.128.038.072c.072-.046.131-.031.131.035s-.089.173-.2.24-.147.12-.085.12a.785.785,0,0,0,.33-.171c.191-.151.235-.147.375.033s.147.18.043-.047a.42.42,0,0,1-.035-.351c.045-.055,0-.035-.1.045-.148.117-.211.111-.326-.034s-.1-.179.148-.179c.363,0,.483-.187.285-.442-.083-.107-.093-.158-.021-.113.144.09.318-.233.274-.509-.016-.1.006-.142.047-.1a.626.626,0,0,1,.019.676c-.167.218.808.059,1.024-.167a.909.909,0,0,1,.6-.123c.3.02.425-.013.373-.1a1.187,1.187,0,0,1-.109-.365c-.025-.186-.009-.2.074-.065a.316.316,0,0,1,.058.254c-.062.1.245.232.335.139.037-.038.016-.134-.047-.213-.084-.106-.046-.139.143-.129a.539.539,0,0,1,.346.133c.05.066.075.014.057-.118s.025-.224.114-.2.133-.056.113-.177c-.026-.159.034-.2.25-.179.178.019.231-.006.142-.066-.111-.075-.1-.146.037-.325.1-.126.149-.169.114-.094a.152.152,0,0,0,.1.2c.116.047.149-.008.117-.194-.041-.241-.034-.244.108-.049s.16.191.223.02c.1-.271.088-.315-.061-.219-.082.053-.1.032-.049-.054s.124-.111.176-.078c.148.1.825-.623.733-.778-.05-.085-.021-.116.076-.081s.25-.054.363-.189.155-.263.088-.286-.068-.1.021-.2.177-.132.223-.1.085-.029.085-.131.038-.185.085-.185.173-.162.281-.36.141-.324.073-.28-.037-.058.069-.226a.56.56,0,0,0,.108-.447c-.048-.081-.036-.111.027-.07.192.124.693-1.311,1.291-3.7.272-1.084.43-3.5.221-3.37-.1.065-.11.031-.032-.133.151-.317.182-1.222.034-.989-.068.107-.114.122-.115.036a.269.269,0,0,1,.1-.208,3.608,3.608,0,0,0-.048-1.483c-.027-.1-.079-.363-.114-.591a15.917,15.917,0,0,0-.765-2.7,2.61,2.61,0,0,1-.216-.64c.011-.051-.057-.123-.151-.16a.326.326,0,0,1-.171-.288c0-.31-.358-1.057-.472-.984-.052.034-.1,0-.109-.064-.045-.4-.226-.722-.355-.638-.071.046-.085.02-.035-.065.111-.187-.249-.753-.411-.649-.078.05-.094.027-.042-.06s-.121-.345-.444-.668c-.533-.532-.706-.651-.557-.379.047.086.038.107-.022.049a.424.424,0,0,1-.117-.207c-.008-.06-.021-.162-.028-.227-.02-.166-.326-.148-.381.024-.028.087-.075.062-.121-.065-.054-.146-.035-.181.064-.119.077.048.014-.052-.141-.222-.228-.25-.315-.283-.454-.17s-.152.113-.017-.066c.085-.113.195-.18.244-.148s.021-.179-.062-.467c-.115-.4-.119-.54-.017-.59.074-.036.026-.038-.107,0-.149.038-.266,0-.3-.108-.09-.246.043-.332.252-.162.158.129.162.122.03-.053-.235-.313-.452-.136-.433.356.017.451-.343.585-.661.246-.075-.08-.076-.115,0-.1.219.043.434-.006.36-.084-.041-.043-.018-.149.052-.236.1-.12.088-.159-.029-.162s-.084-.07.071-.212c.283-.26.547-.73.461-.82-.035-.037-.065.008-.066.1,0,.142-.018.141-.106,0a.321.321,0,0,1-.028-.3c.158-.257.033-.288-.279.142l-.277.384.261,0c.259,0,.258.006-.051.29a.941.941,0,0,0-.312.466.62.62,0,0,1-.283.374c-.156.107-.284.248-.284.315,0,.107-4.268-17.035-4.574-17.469s-1.347-9.331-1.391-9.45M-10.49,61.048c-.07-.074.106-.532.2-.532.052,0,.037.129-.035.287m.491.471c-.031.047.034.139.144.2s.17.17.131.234-.191-.02-.342-.191c-.326-.367-.333-.4-.075-.362.109.017.173.069.142.116m-.339.3c.064-.107.122-.079.216.1.117.228.106.241-.124.153-.139-.054-.263-.16-.277-.237-.018-.1-.008-.1.036,0s.086.094.149-.013m1.361.769c.2-.127.118.017-.135.249-.135.124-.207.155-.158.07s.006-.224-.122-.332c-.2-.164-.192-.167.048-.046a.479.479,0,0,0,.368.059m-.172.77a.227.227,0,0,0,.031.257q.114.118.2-.021a.227.227,0,0,0-.031-.257q-.113-.118-.2.021m3.265,1.238c.263-.031.3-.008.185.131-.175.219.122.237.332.02.115-.119.128-.107.067.059a.375.375,0,0,1-.359.207c-.205,0-.266-.049-.218-.177.036-.1.016-.177-.044-.177a.129.129,0,0,0-.11.142c0,.109-.031.11-.133,0a.173.173,0,0,0-.273-.018c-.1.084-.166.077-.224-.021s-.036-.111.066-.045.13.043.077-.1-.035-.178.122-.091a1.021,1.021,0,0,0,.514.071m1.491.576c.163.124.176.18.061.254-.1.063-.121.049-.067-.041.072-.122-.063-.19-.3-.151-.047.008-.085-.039-.085-.1,0-.163.145-.148.392.041m-.7.954c-.038.071-.031.091.017.047s.207-.033.354.025.295.061.327.006-.1-.124-.284-.153-.376,0-.414.075m.21.384c-.181.206-.131.3.085.165a.214.214,0,0,0,.11-.218c-.024-.07-.107-.047-.2.053m1.647-.113c-.114.031-.183.12-.155.2s-.041.142-.157.142c-.194,0-.2-.015-.026-.211a.542.542,0,0,1,.364-.2c.139.011.133.027-.026.069m2.871.7c0,.193.045.266.131.211s.1-.032.044.063-.122.11-.207.021a.166.166,0,0,0-.256-.009c-.092.08-.18.06-.278-.063-.122-.153-.1-.175.122-.149.183.021.279-.038.309-.19s0-.193-.1-.13-.113.043-.06-.047c.124-.209.293-.04.293.293m-3.046.2c-.069.087-.093.194-.052.236.143.149.249.076.232-.159-.02-.28-.02-.28-.181-.078m3.733.251c.058-.038.106.041.106.175,0,.27.132.3.461.121.151-.084.219-.084.219,0,0,.067-.077.122-.17.122s-.17.056-.17.125-.047.095-.105.057-.138.039-.177.169c-.091.3-.517.254-.637-.066-.053-.141-.088-.162-.093-.056-.006.126-.055.11-.187-.059-.1-.126-.146-.163-.107-.083.047.1.011.122-.105.076-.21-.084-.234-.281-.034-.283.1,0,.087-.043-.028-.13-.137-.1-.126-.112.057-.046.3.108.472.15.376.091-.043-.026.008-.14.113-.254.153-.166.21-.175.283-.049.05.086.14.126.2.088m-3.011-.054c-.039.065-.029.119.022.12s.015.058-.078.127c-.113.083-.12.111-.02.084.083-.023.142-.087.132-.144s.05-.147.133-.2c.1-.068.108-.1.017-.1a.262.262,0,0,0-.205.116m1.792.43c-.079.213-.1.187-.191-.253-.068-.326-.061-.337.089-.136a.489.489,0,0,1,.1.389m-1.434-.224c-.054.09-.03.149.06.152s.061.077-.078.193c-.191.16-.2.178-.024.117a.189.189,0,0,1,.264.1.176.176,0,0,0,.234.1.227.227,0,0,1,.269.094c.072.121.092.1.079-.08s-.08-.231-.253-.2-.264-.037-.349-.287c-.077-.229-.141-.287-.2-.186M1.2,68.31c.012.173.053.2.162.1.08-.069.117-.173.083-.231-.111-.188-.262-.11-.245.126m1.287.178a.609.609,0,0,1-.117.44c-.1.148-.18.212-.18.143a.356.356,0,0,1,.085-.213.311.311,0,0,0-.025-.451c-.075-.055-.064-.087.028-.089a.254.254,0,0,1,.209.17m-2.109.33c0,.15.038.211.085.139.142-.216.442-.28.442-.093,0,.107-.067.145-.18.1-.136-.054-.148-.038-.049.066s.189.1.34.011c.115-.07.147-.128.071-.13s-.109-.083-.073-.181c.049-.134-.02-.177-.287-.177-.29,0-.352.047-.351.266m5.473-.107a.408.408,0,0,1-.055.325c-.093.136-.1.131-.055-.026a.364.364,0,0,0-.068-.325c-.09-.094-.091-.133,0-.133a.232.232,0,0,1,.182.158m-4.313.318c-.14.059-.255.144-.255.189s.034.048.075,0,.143-.018.227.054c.116.1.152.089.152-.05a.276.276,0,0,1,.142-.241c.078-.033.091-.061.028-.061a1.322,1.322,0,0,0-.368.105m1.032.292c.022.065.131.1.242.08.144-.027.183.015.133.148-.038.1-.019.186.041.186s.11-.127.11-.283c0-.228-.055-.28-.283-.266-.156.009-.266.07-.243.135m3.021-.059v.177c0,.166-.153.09-.178-.089-.016-.114.017-.207.074-.207a.112.112,0,0,1,.1.118M4.3,69.675c.037.1,0,.177-.079.177s-.112.034-.072.076c.084.088.418-.173.418-.327,0-.057-.075-.1-.167-.1s-.141.069-.1.177m1.463.088c-.1.143-.175.212-.175.151s-.057-.049-.127.024a.283.283,0,0,1-.283.07c-.086-.034-.156-.017-.155.039,0,.154.221.475.223.327,0-.071.129-.189.285-.263.3-.144.375-.072.14.143-.079.072-.122.119-.1.1s.109.061.186.17c.13.186.151.185.331,0s.211-.18.362-.023c.42.438.255.059-.18-.413-.145-.158-.156-.157-.1.008a.287.287,0,0,1-.148.326c-.174.114-.215.108-.215-.031a.33.33,0,0,1,.125-.252c.089-.057.085-.107-.015-.171a.171.171,0,0,1-.059-.228c.062-.1.121-.1.244,0,.089.077.185.118.211.09s-.048-.114-.168-.192c-.182-.119-.244-.1-.391.12m1.044.1c-.215.13-.263.407-.091.519.059.038.089-.033.066-.157-.033-.176.012-.216.2-.179.135.026.182.015.1-.024a.133.133,0,0,1-.078-.179c.08-.135.045-.132-.2.02M4.454,70.1c0,.044.094.1.208.136s.208,0,.208-.079-.094-.136-.208-.136-.208.036-.208.079m3.105.156c-.05.137-.119.153-.275.067-.288-.161-.337-.147-.327.091.005.122.032.146.066.06.039-.1.118-.113.259-.034.241.135.7-.137.476-.281-.073-.047-.161,0-.2.1m.3.419c0,.063-.071.086-.158.051a.194.194,0,0,0-.234.063c-.047.079.02.111.181.086.219-.035.466-.315.277-.315-.036,0-.066.051-.066.114m.4,0c-.12.046-.169.115-.108.155.117.075.473-.1.381-.187-.03-.028-.152-.013-.273.032m.26.347c.118.078.122.122.016.191a.156.156,0,0,1-.22-.05c-.059-.1-.16-.071-.356.1-.15.131-.21.239-.132.241a.131.131,0,0,0,.142-.122c0-.073.1-.094.232-.049a.452.452,0,0,0,.4-.064c.177-.153.122-.352-.1-.349-.09,0-.084.035.019.1m1.2.615c-.055.092-.038.113.045.06s.131-.008.131.107.041.165.091.133.152.044.228.17c.151.253.032.31-.182.087-.106-.11-.136-.094-.136.073s.065.2.286.158a.357.357,0,0,1,.405.134c.106.17.113.169.058-.014a.28.28,0,0,1,.162-.329c.122-.068.222-.189.221-.268,0-.1-.033-.092-.1.02-.084.138-.136.137-.338-.011-.131-.1-.214-.21-.183-.253s0-.026-.078.039c-.091.08-.2.059-.328-.066-.148-.139-.215-.149-.28-.039m-.273.43c-.148.173-.145.187.021.12a.177.177,0,0,1,.24.066c.029.078.047.021.04-.125-.015-.313-.076-.326-.3-.062m4.4.393a.685.685,0,0,0-.049.255c.008.046-.07.152-.173.236a.306.306,0,0,0-.1.389l.09.236.079-.236c.044-.13.131-.351.2-.491a.71.71,0,0,0,.067-.408c-.038-.118-.064-.114-.112.018M12.5,72.63c-.116.146-.107.177.049.177.107,0,.158.056.115.127s.022.064.151-.021c.188-.123.2-.174.077-.3-.189-.2-.221-.2-.393.021m-.9.108c-.068.086-.012.128.172.128.151,0,.274-.057.274-.128s-.077-.128-.172-.128a.394.394,0,0,0-.274.128m2.519.247c-.14.306-.156.449-.063.547s.118.074.093-.09c-.06-.391.148-.678.36-.5.161.139.166.127.045-.11-.179-.351-.211-.339-.435.149m-.827-.048c0,.072-.077.1-.17.063s-.17,0-.17.08.108.157.24.167.209-.013.171-.052-.012-.143.058-.23c.093-.116.093-.159,0-.159a.129.129,0,0,0-.127.131m1.99.411c-.184.14-.189.168-.035.168a.328.328,0,0,0,.26-.126c.12-.2.013-.223-.225-.041m-.814.348a.454.454,0,0,1,.185.246c0,.058.166.114.369.124l.368.019-.313-.118c-.172-.065-.283-.167-.247-.228a.144.144,0,0,1,.2-.03c.074.044.095.035.047-.02a.827.827,0,0,0-.439-.117c-.3-.015-.324,0-.168.123m.868-.067c-.144.095-.14.121.023.186.208.083.427-.014.427-.189,0-.141-.234-.14-.45,0m3.671.2c.1.27.044.276-.189.023-.151-.165-.161-.217-.04-.217a.288.288,0,0,1,.229.194m.611.5a.143.143,0,0,1-.182-.093c-.034-.107-.091-.1-.232.012-.166.136-.17.13-.036-.049s.191-.176.37-.059c.14.091.169.159.081.19m5.622,3.158c.055.149.105.16.229.053.163-.141.394.044.247.2-.037.039-.068,0-.068-.081,0-.114-.038-.12-.153-.02s-.2.077-.358-.1c-.113-.13-.151-.236-.086-.236s.15.086.189.191m.9-.112a.174.174,0,0,0-.073.225c.035.093,0,.169-.082.169s-.111-.035-.07-.078.027-.138-.032-.211c-.074-.093-.03-.138.143-.147.137-.007.188.012.114.042m4.018,2.13c-.109.03-.2.117-.2.193s-.048.065-.112-.038c-.09-.146-.11-.148-.111-.01,0,.092-.033.136-.07.1-.136-.142.089-.323.387-.31.192.009.232.034.107.068m1.814,2.016c-.109.026-.2.088-.2.138,0,.152.41.489.491.4.042-.044.076-.017.076.059,0,.18.2.176.384-.006.237-.231-.345-.691-.753-.595m.428.266c.213,0,.313.2.151.305-.083.054-.1.035-.052-.051s0-.136-.146-.136c-.248,0-.393-.155-.268-.286.044-.046.1-.027.12.042a.21.21,0,0,0,.194.126m2.355.395c.08.217-.093.5-.2.327-.043-.072-.017-.131.056-.131.1,0,.1-.045-.007-.177-.082-.1-.093-.177-.026-.177a.229.229,0,0,1,.174.158m-.941.382a.626.626,0,0,0,.163.238c.169.176.335.065.2-.133-.088-.128-.361-.207-.361-.1M44.7,86.989c-.109.071-.093.124.068.221.117.071.172.13.123.132a1.058,1.058,0,0,1-.358-.18c-.179-.122-.294-.142-.343-.059a.263.263,0,0,1-.209.121c-.268-.008.233-.292.546-.31.2-.011.262.018.173.075m31.777,3.57a.673.673,0,0,0-.1.234.275.275,0,0,1-.072.153c-.039.041-.064-.048-.057-.2a.556.556,0,0,1,.124-.353c.155-.116.214-.022.1.163m-20.688,2.71c-.245.162-.364.121-.212-.071.077-.1.191-.143.252-.1s.052.113-.041.174m1.693,2.026c.088.111.048.152-.16.165-.226.014-.253-.014-.146-.148.16-.2.16-.2.307-.018m-.3,1.241c-.044.225-.077.261-.106.118-.023-.114-.1-.208-.176-.209s-.062-.05.037-.116c.268-.18.313-.142.245.207m19.911,16.618c.163-.054.166-.045.021.064-.244.183-.341.161-.331-.076,0-.114.034-.143.064-.066a.194.194,0,0,0,.246.077m-.4.8c-.089.093-.182.09-.333-.008-.189-.123-.185-.129.046-.063.164.047.255.021.255-.073s.035-.11.077-.065.022.139-.046.209m-1.465-.042c.137.231-.23.513-.394.3-.105-.135-.11-.172-.015-.112.2.127.437-.044.239-.175-.1-.068-.109-.1-.019-.1a.234.234,0,0,1,.188.088m-10.242.28c0-.081.051-.115.113-.075.16.1.141.279-.028.252-.231-.037-.425-.2-.421-.348,0-.077.078-.038.17.089s.166.163.166.082m10.654.113c0,.038-.068.069-.153.069s-.133-.085-.1-.227c.052-.207.244-.086.25.158m-2.534.483c-.173.1-.183.146-.057.239s.124.1-.015.065c-.281-.08-.263-.389.025-.41.238-.018.242-.009.047.107m-5.146.143c.108.086.163.19.123.233-.119.124-.265.089-.234-.056a.175.175,0,0,0-.113-.187c-.078-.03-.142.027-.142.126a.32.32,0,0,1-.1.243c-.053.034-.073-.069-.043-.229.059-.324.212-.363.507-.129m2.014.369c.436.077.568.208.35.348a.1.1,0,0,1-.146-.066c-.023-.073-.188-.149-.367-.169-.313-.036-.516-.221-.512-.468,0-.065.051-.03.112.078a.932.932,0,0,0,.563.277m3.061-.007a3.112,3.112,0,0,0,.4-.108c.158-.055.144-.027-.049.093a.8.8,0,0,1-.454.135c-.1-.02-.254-.045-.347-.055-.119-.013-.127-.036-.028-.078a.145.145,0,0,0,.077-.2c-.036-.076,0-.053.084.051a.4.4,0,0,0,.32.159m-3.689.31c-.032.055-.144.066-.248.024-.121-.048-.14-.093-.053-.123a.122.122,0,0,0,.057-.185c-.044-.076.007-.065.111.024s.164.206.131.261m2.784.376c0,.114.02.207.046.207a1.253,1.253,0,0,1,.242.078c.128.051.179.028.148-.068-.026-.08-.091-.137-.145-.127s-.141-.052-.194-.139c-.073-.121-.1-.11-.1.049" transform="translate(11.606 -23.982)" fill="#fff" fill-rule="evenodd"/>
    <path id="path0" d="M53.875,20.066a.792.792,0,0,0-.218.4c-.088.352-.47.392-.836.089a.685.685,0,0,0-.46-.133.509.509,0,0,1-.413-.151c-.114-.137-.193-.152-.31-.055a.264.264,0,0,1-.267.061c-.061-.038-.144.017-.184.121a.233.233,0,0,1-.308.129c-.129-.034-.266-.011-.3.051s-.123.071-.207,0c-.294-.232-1.264-.143-1.111.1.076.121.1.262.044.313s-.145,0-.208-.113-.169-.206-.234-.206-.082.061-.035.136c.059.1-.011.112-.239.054-.2-.05-.3-.037-.251.034s-.222.109-.7.1c-.424-.01-.771-.066-.771-.125s-.088-.034-.2.054c-.166.137-.205.137-.251,0s-.071-.134-.151,0c-.063.1-.4.167-.946.185a3.332,3.332,0,0,0-1.326.265c-.33.163-.539.2-.678.128a.375.375,0,0,0-.425.055c-.159.116-.266.127-.373.038s-.134-.081-.084.05c.158.411-.782.7-1.161.358-.137-.124-.245-.151-.3-.074a1.144,1.144,0,0,1-.641.113c-.406-.006-.611.052-.747.211s-.28.2-.592.143c-.367-.069-.405-.05-.405.2,0,.212-.075.284-.325.314a2.3,2.3,0,0,1-1.275-.115c-.077-.06-.132.021-.149.216-.032.394-.243.529-.522.333-.221-.155-.757-.118-.867.06-.034.054-.141.068-.239.031a.478.478,0,0,0-.408.139c-.165.149-.272.173-.38.085a1.038,1.038,0,0,0-.741-.142,4.24,4.24,0,0,1-.793.1c-.266.015-.344.1-.462.49-.078.26-.209.473-.29.473a.227.227,0,0,0-.2.148c-.037.11-.092.114-.217.016a2.206,2.206,0,0,0-.935-.1c-1.021.039-1,.031-.827.234s.11.211-.5.069c-.457-.106-.791.074-.627.339.042.068.023.123-.042.123a.259.259,0,0,1-.191-.118c-.11-.178-.429-.142-.581.066a.854.854,0,0,1-.634.191c-.413.006-.5.047-.5.238,0,.227-.089.229-.655.018-.068-.025-.242.115-.388.312s-.321.358-.391.358a5.834,5.834,0,0,0-1.412.568,5.425,5.425,0,0,1-1,.326,1.191,1.191,0,0,0-.535.195.5.5,0,0,1-.3.146c-.124.021-.213.091-.2.158s-.169.115-.406.108-.452.051-.479.13-.163.142-.3.142a1.073,1.073,0,0,0-.584.347,1.831,1.831,0,0,1-.98.493,2.142,2.142,0,0,0-.714.244.359.359,0,0,1-.272.1.692.692,0,0,0-.417.227,5.229,5.229,0,0,1-1.066.652,5.239,5.239,0,0,0-1.064.651,1.336,1.336,0,0,1-.657.3,1.077,1.077,0,0,0-.667.363c-.119.158-.28.287-.36.287a.949.949,0,0,0-.424.3,2.611,2.611,0,0,1-.98.511c-.582.175-.7.253-.691.467.009.234-.087.311-.338.27-.051-.008-.123.065-.16.163a.319.319,0,0,1-.283.179c-.343,0-.588.13-.588.312a.312.312,0,0,1-.207.247,2.09,2.09,0,0,0-.5.351,1,1,0,0,1-.49.272c-.184,0-.55.2-2.192,1.18a8.159,8.159,0,0,1-.747.418c-.369.034-1.329,1-.994,1,.1,0,.148.053.108.118s-.019.118.047.118a1.062,1.062,0,0,1,.413.316c.248.267.322.292.478.163.124-.1.184-.11.184-.02a.158.158,0,0,0,.174.133c.113,0,.147.068.1.2s-.03.169.063.111.138-.012.138.1c0,.126.112.184.355.184.3,0,.355.046.355.3,0,.162.053.3.118.31a2.408,2.408,0,0,1,.237.044,3.2,3.2,0,0,0,.428.044c.261.012.287.043.163.192-.169.2-.059.228.8.182.381-.02.5.017.5.152,0,.106.156.211.384.259.211.044.689.182,1.062.306a4.559,4.559,0,0,0,.768.21c.267-.043.509.028.445.132-.041.067.058.118.229.118s.3.042.3.093.173.106.384.122.4.08.424.143.163.083.314.045a.356.356,0,0,1,.347.556c-.051.083-.02.112.081.077a1.75,1.75,0,0,1,.73.162,3.218,3.218,0,0,0,.857.22c.16,0,.291.042.291.094,0,.111.7.378.983.378.109,0,.2.051.2.113s.2.149.443.193a1.8,1.8,0,0,1,.578.187,1.3,1.3,0,0,0,.5.153,1.686,1.686,0,0,1,.508.135,1.665,1.665,0,0,0,.652.063c.415-.021.5.007.438.156-.066.172.206.239.871.214.081,0,.148.038.148.09s.159.131.355.174.354.113.354.157.253.068.562.054c1-.045,1.414.158,1.057.514-.316.316-.059.48.952.608,1.183.149,1.66.338,1.709.676.029.2.139.242.714.272.374.019.68.086.68.148s.173.113.384.113a1.591,1.591,0,0,1,.739.236,1.4,1.4,0,0,0,.549.235.3.3,0,0,1,.262.178c.04.1.217.177.426.177s.345.057.329.132.05.148.148.167c1,.2,1.645.308,1.891.327a1.4,1.4,0,0,1,.65.349,1.284,1.284,0,0,0,.509.325c.086,0,.118.061.071.136-.057.093.013.117.226.076.17-.033.287-.022.258.024-.129.208.543.387,1.176.312.413-.048.656-.033.656.042s.08.119.177.119a.173.173,0,0,1,.177.168c0,.179.357.311,1.448.536.374.077.68.2.68.266,0,.264.591.658,1.1.735.3.044.561.156.6.251a.292.292,0,0,0,.254.172c.1,0,.159.048.123.106s.36.143.88.189a2.312,2.312,0,0,1,.945.19c0,.058.08.106.177.106s.177.047.177.1c0,.142,1.043.4,1.208.294.086-.053.106-.013.057.115-.041.108-.037.2.009.206a.922.922,0,0,1,.749.395.718.718,0,0,0,.632.305c.216,0,.419.069.451.152s.264.165.515.18a3.9,3.9,0,0,1,1.7.609c0,.048.213.182.473.3s.473.258.473.313.07.1.156.1c.28,0,1.112.462.848.472-.222.008-.224.015-.022.133a.534.534,0,0,0,.4.054c.13-.05.163-.018.114.111-.056.146.011.172.346.135.545-.06,1.183.084,1.145.258-.016.076.054.138.156.138.22,0,.544.295.439.4-.04.04.014.073.121.073a.621.621,0,0,0,.387-.294c.106-.162.243-.264.3-.226s.067.128.009.206c-.307.414.037.669.421.312.143-.133.261-.212.261-.175s.111.008.247-.064c.314-.168.4-.082.231.232-.1.19-.1.247.02.25.1,0,.072.064-.062.166-.117.089-.163.193-.1.231.172.106.375-.211.32-.5-.069-.359.131-.324.222.038.043.17.161.3.279.3.188,0,.186.018-.014.169-.251.19-.189.361.165.454.177.046.274-.008.349-.193.1-.247.1-.247.111-.016.005.162.094.247.272.261.146.011.283.076.305.143s.143.123.268.123c.256,0,.285.143.1.488-.212.4.392.929.719.633.255-.231.33-.087.087.169-.119.126-.09.125.148,0,.344-.186.709-.234.709-.093,0,.054.08.068.177.03.274-.1.211.057-.148.378l-.325.291.346-.124a.964.964,0,0,1,.508-.061c.09.034.131.01.091-.054s-.029-.116.023-.115a.363.363,0,0,1,.332.353c0,.186.127.2.709.065.3-.07.328-.059.168.075-.493.412-.245.94.352.75.154-.049.3.022.46.228.13.165.3.3.379.3s.115.074.08.165c-.071.185.472.347.58.174a.242.242,0,0,1,.2-.093c.1.007.1.026-.007.069a.234.234,0,0,0-.148.188c0,.07.036.092.079.049s.163,0,.266.088a1.066,1.066,0,0,0,.481.207.36.36,0,0,1,.336.277c.057.329.5.655.725.536.553-.29,1.355.247,1.062.711-.143.227-.142.381,0,.291a.475.475,0,0,1,.369.064c.159.085.281.093.327.022.116-.18.856-.527.941-.442.042.042-.1.219-.308.393-.5.413-.484.492.1.422.323-.039.457-.017.406.067s.072.155.285.2.362.146.362.235.1.162.224.162c.254,0,.421.307.231.425s.149.293.4.215c.114-.035.207-.008.207.062s.217.126.481.126c.432,0,.9.237.75.384s-.145.546-.012.494a3.807,3.807,0,0,0,.413-1.209c.5-2.133.713-1.928.9.887a3.674,3.674,0,0,0,.159.946.562.562,0,0,1,.051.376c-.036.1-.007.132.076.081.2-.124.553.267.389.432-.095.095-.078.168.061.27a.936.936,0,0,1-.019,1.285.955.955,0,0,0-.3.411.139.139,0,0,1-.142.134c-.078,0,.068.221.325.49s.374.457.261.417c-.241-.085-.286.1-.047.192.088.034.191.254.23.49a1.95,1.95,0,0,0,.375.792c.238.282.276.4.171.526a.373.373,0,0,0-.071.33c.116.3-.215.623-.444.432-.177-.147-.194-.119-.176.3a5.607,5.607,0,0,1-.17,1.231,6.748,6.748,0,0,0-.191,1.215c0,.286-.065.471-.178.515-.1.037-.146.118-.107.18a1.6,1.6,0,0,1-.232.726A7.885,7.885,0,0,0,71.5,80.9a18.066,18.066,0,0,1-.435,1.832,7.412,7.412,0,0,0-.613,2.609,1.444,1.444,0,0,1-.079.658,2.6,2.6,0,0,0,.1,1.784c.167.326.264,1.1.137,1.1-.239,0-.089.324.358.772a2.076,2.076,0,0,1,.473.6,2.792,2.792,0,0,0,1.018.754,4.963,4.963,0,0,1,.682.309,5.3,5.3,0,0,0,2.784.406,8.793,8.793,0,0,0,2.169-.848c.682-.682,1.246-1.509,1.057-1.55-.149-.032-.1-.1.2-.256s.361-.238.239-.313-.113-.167.1-.456a1.688,1.688,0,0,0,.263-.44.738.738,0,0,1,.183-.287c.228-.252.284-1.2.074-1.267-.117-.039-.119-.087-.006-.223a2.059,2.059,0,0,0,.175-.845,3.649,3.649,0,0,1,.358-1.809,1.151,1.151,0,0,0,.187-.591A1.754,1.754,0,0,1,81.28,82a1.785,1.785,0,0,0,.334-.591,1.089,1.089,0,0,1,.224-.443c.237-.308.207-.6-.062-.6-.229,0-.209-.076.141-.535.168-.22.269-.46.225-.531s.009-.23.118-.351a1.822,1.822,0,0,0,.239-1.033,6.618,6.618,0,0,1,.267-1.486c.125-.37.176-.673.113-.673s-.052-.075.025-.167a1.313,1.313,0,0,0,.2-.5,1.929,1.929,0,0,1,.231-.6c.227-.349.217-.549-.023-.457-.13.05-.085-.067.137-.358.28-.367.308-.467.186-.662s-.105-.287.067-.545a.9.9,0,0,0,.181-.454.218.218,0,0,1,.092-.214.221.221,0,0,0-.086-.418c-.167,0-.15-.046.089-.231.255-.2.276-.261.15-.465s-.113-.255.05-.346a.472.472,0,0,0,.223-.271,2.118,2.118,0,0,1,.107-.359c.064-.159.029-.185-.18-.13-.286.075-.027-.49.327-.712.215-.135.192-.446-.027-.362-.113.044-.177,0-.177-.126a.3.3,0,0,1,.173-.26.787.787,0,0,0,.315-.738,1,1,0,0,1,.3-.527c.183-.2.239-.293.124-.205-.274.21-.409.068-.188-.2.327-.395.733-1.448.558-1.448-.093,0-.091-.047,0-.162a2.8,2.8,0,0,0,.383-1.673c-.1-.351-.015-.6.327-1.031.091-.114.125-.207.074-.207s-.025-.08.055-.177c.1-.123.106-.177.015-.177-.193,0-.162-.378.055-.688.149-.212.158-.3.045-.44s-.109-.172,0-.172c.077,0,.108-.052.069-.115s.008-.236.105-.384a2.193,2.193,0,0,0,.223-.817,2.138,2.138,0,0,1,.291-.89c.166-.233.211-.4.141-.528a3.1,3.1,0,0,1,.511-1.619c.1-.116.089-.182-.026-.253a.167.167,0,0,1-.08-.217.119.119,0,0,0-.074-.176c-.109-.04-.078-.182.117-.534.272-.491.212-.73-.22-.874-.1-.033-.091-.119.028-.31.14-.226.139-.279,0-.368s-.14-.169-.031-.44a3.785,3.785,0,0,0,.111-1.813c-.058,0-.075-.048-.038-.107.107-.173-.058-.474-.225-.41-.109.042-.135-.031-.092-.257.038-.2,0-.353-.1-.416s-.169-.354-.178-.864a1.736,1.736,0,0,0-.3-1.154,5.723,5.723,0,0,1-.639-1.047,2.635,2.635,0,0,0-.187-.355c-.063-.1-.229-.43-.369-.738a1.393,1.393,0,0,0-.462-.627.5.5,0,0,1-.28-.3,1.17,1.17,0,0,0-.213-.379,7.364,7.364,0,0,1-1.026-1.441.548.548,0,0,0-.236-.3c-.13-.094-.236-.228-.236-.3a3.75,3.75,0,0,0-.65-.82,7.723,7.723,0,0,1-.65-.743c0-.078-2.312-2.31-2.664-2.572a4.243,4.243,0,0,1-.511-.451A17.714,17.714,0,0,0,76.57,35.56a5.928,5.928,0,0,1-.78-.652.292.292,0,0,0-.3-.081.4.4,0,0,1-.369-.129.725.725,0,0,0-.494-.185c-.187,0-.34-.053-.34-.118s-.133-.118-.3-.118c-.225,0-.3-.061-.3-.259,0-.239.011-.243.151-.053a.3.3,0,0,0,.352.13c.244-.094.13-.225-.561-.646a4.947,4.947,0,0,1-.846-.68c-.248-.261-.392-.341-.429-.24s-.11.019-.186-.173-.211-.332-.31-.34-.234-.021-.3-.03a2.133,2.133,0,0,1-.526-.34,1.788,1.788,0,0,0-.517-.325.459.459,0,0,1-.253-.172,3.651,3.651,0,0,0-1.527-.818A1.07,1.07,0,0,1,68.2,30.1c-.221-.22-.531-.258-.531-.064a2.146,2.146,0,0,0,.84.816c.058,0,.106.1.106.213a1.776,1.776,0,0,0,.492.71c.271.273.454.535.407.581s-.134.006-.195-.089-.111-.127-.112-.07-.218-.167-.481-.5a16.792,16.792,0,0,0-2.739-2.681,10.69,10.69,0,0,1-2.3-1.979,3.441,3.441,0,0,0-.6-.625c-.146-.1-.266-.234-.266-.3,0-.133-.278-.493-.816-1.053a2.239,2.239,0,0,1-.481-.714.728.728,0,0,0-.315-.414,4.151,4.151,0,0,1-1.076-1.093.568.568,0,0,0-.34-.266c-.09,0-.164-.052-.164-.116s-.194-.2-.431-.3a1.86,1.86,0,0,1-.6-.385c-.122-.15-.184-.166-.229-.058-.092.22-.252.179-.336-.086-.041-.129-.111-.224-.156-.211a.765.765,0,0,1-.338-.12c-.23-.128-.267-.109-.364.18l-.108.323-.331-.5c-.327-.5-.773-.681-.773-.323,0,.1-.053.177-.118.177s-.118-.074-.118-.165c0-.207-.3-.339-.813-.364a.812.812,0,0,1-.545-.218.468.468,0,0,0-.287-.2c-.078,0-.109-.053-.069-.118.086-.139.05-.146-.138-.027M6.558,36.995a1.162,1.162,0,0,1-.414.233c-.065,0,.041-.1.236-.233.454-.3.562-.3.177,0" transform="translate(7.606 -19.982)" fill="#c00604" fill-rule="evenodd"/>
  </g>
</svg>