<svg xmlns="http://www.w3.org/2000/svg" width="278.675" height="152.858" viewBox="0 0 278.675 152.858">
  <path id="Path_1" data-name="Path 1" d="M242.239,197.691V170.08H127.951V322.938H299.027V271.274h27.9l44.406,51.38h35.3l-46.792-53.74-9.569-22.61H299.027V196.995h51.237s10.184,3.247,14.861,9.862,3.848,16.6,3.848,16.6.709,5.532-3.848,12.267S350.265,246.3,350.265,246.3l9.569,22.61s21.507-6.848,29.428-17.85c10.247-14.233,8.113-28.891,8.113-35.724s-4.127-21.918-17.506-32.735-29.6-12.24-29.6-12.24H269.993V295.327H156.986V259.745h82.976v-26.9H156.986V197.691Z" transform="translate(-127.951 -170.08)" fill="#fff"/>
</svg>