<svg xmlns="http://www.w3.org/2000/svg" width="36.045" height="39.592" viewBox="0 0 36.045 39.592">
  <g id="layer1" transform="translate(110.258 -13.148)">
    <g id="g891" transform="translate(-44.042 -35.796)">
      <circle id="path834" cx="4.602" cy="4.602" r="4.602" transform="translate(-39.375 67.719)" fill="#fff"/>
      <path id="circle870" d="M-62.2,48.944a4.02,4.02,0,0,0-4.02,4.02V84.516a4.02,4.02,0,0,0,4.02,4.02,4.02,4.02,0,0,0,4.02-4.02V79.823l2.515-2.4,6.989,9.481h0a4.02,4.02,0,0,0,5.621.85,4.02,4.02,0,0,0,.85-5.621l-7.6-10.31,5.268-5.034a4.02,4.02,0,0,0,.129-5.683,4.02,4.02,0,0,0-5.683-.129L-58.178,68.7V52.964a4.02,4.02,0,0,0-4.02-4.02Z" fill="#fff"/>
    </g>
  </g>
</svg>