<svg xmlns="http://www.w3.org/2000/svg" width="303.524" height="308.544" viewBox="0 0 303.524 308.544">
  <g id="Component_1_1" data-name="Component 1 – 1" transform="translate(0.521 0.527)">
    <path id="Path_1" data-name="Path 1" d="M104.663,179.617l9.286,4V170.111l9.756,4.753V188l18.637,8.631v13.509l9.631,4.378V173.738l9.381,4.628v27.018l9.506,4.128V196.628l9.256,4.5V227.4l9.381,4.253V218.142l9.756,4.628v13.509l9.256,4V226.647l9.256,4.378V218.142l9.631,4.628v12.508l11.78,5.253V227.4l16.239,7.88h0l19.062-8.631v13.634l19.025-8.631v12.508l9.431-3.878V200.005l9.269-4.228V222.77l9.594-4.628V205.384l9.594-4.253V227.4l9.756-4.628-.25-13.257,9.679-4.13.307,13.326,8.934-4.511V200.8l9.679-4.292V182.755l9.284-3.723.263,13.357,18.656-8.715V170.142l9.416-4.029-.087-26.758L255.969,89.578l-151.234,50Z" transform="translate(-104.663 -89.578)" fill="#fff" stroke="#fff" stroke-width="1"/>
    <path id="Path_2" data-name="Path 2" d="M401.055,166.374V339.55L252.422,403.359l-147.891-63.82V178.844" transform="translate(-101.552 -99.152)" fill="none" stroke="#fff" stroke-width="7"/>
  </g>
</svg>