<svg xmlns="http://www.w3.org/2000/svg" width="21.545" height="24.001" viewBox="0 0 21.545 24.001">
  <path id="pastebin-svgrepo-com" d="M17.02,0A2.1,2.1,0,0,0,16.3.123L2.623,5A2.1,2.1,0,0,0,1.35,7.69L6.674,22.606a2.1,2.1,0,0,0,2.685,1.272L17.1,21.113c.792-.307,1.345-.534,1.464-.608.543-.314.962-.817,1.964-2.334a17.921,17.921,0,0,0,2.1-4.28c.24-.97.239-1.48-.5-3.675h0L18.982,1.4A2.1,2.1,0,0,0,17.02,0Zm-.084.414a1.682,1.682,0,0,1,1.657,1.12l3.147,8.82.008,0c.271.763.5,1.415.526,1.54a1.427,1.427,0,0,1-.737,1.35,10.162,10.162,0,0,1-1.142.429,4.014,4.014,0,0,0-2.458,1.548c-.363.591-.315,1.18.16,2.377.462,1.142.533,1.864.225,2.4-.113.188-.3.322-1.354.733l0,0L9.22,23.488a1.68,1.68,0,0,1-2.157-1.022L1.74,7.55A1.68,1.68,0,0,1,2.762,5.393L16.436.513A1.669,1.669,0,0,1,16.936.414ZM15.9,2.25l-.708.515-.495.37.113.314.074.2.523-.316.4,1.112.4,1.123-.359.129-.337.12c.045.145.216.642.238.664l2.166-.779-.238-.663-.244.088-.443.16-.334-.93ZM12.61,3.432l-.709.515-.494.37.113.314.073.2.524-.316.4,1.112.4,1.123-.36.129-.337.121c.046.144.216.64.238.663l2.167-.778-.238-.663-.244.087-.443.16-.334-.93ZM9.084,4.786a1.532,1.532,0,0,0-.8.223c-.732.448-.85,1.383-.332,2.558A1.708,1.708,0,0,0,9.414,8.782c1.345-.007,1.86-1.4,1.085-2.95A1.631,1.631,0,0,0,9.084,4.786Zm-.191.672a.728.728,0,0,1,.539.279,2.526,2.526,0,0,1,.437.787c.35,1,.164,1.688-.414,1.546C8.854,7.93,8.21,6,8.62,5.585a.407.407,0,0,1,.273-.127Zm-3.765.75a1.532,1.532,0,0,0-.8.223C3.6,6.879,3.478,7.813,4,8.988A1.707,1.707,0,0,0,5.458,10.2c1.344-.007,1.86-1.4,1.085-2.95A1.629,1.629,0,0,0,5.128,6.208Zm-.192.672a.728.728,0,0,1,.54.278,2.526,2.526,0,0,1,.437.787c.35,1,.164,1.689-.415,1.547-.6-.141-1.243-2.072-.834-2.485a.407.407,0,0,1,.272-.127ZM18.3,7.535a1.533,1.533,0,0,0-.8.223c-.732.448-.85,1.382-.332,2.558a1.708,1.708,0,0,0,1.462,1.215c1.345-.007,1.86-1.4,1.085-2.95A1.631,1.631,0,0,0,18.3,7.535Zm-.191.672a.73.73,0,0,1,.539.278,2.526,2.526,0,0,1,.437.787c.35,1,.164,1.689-.414,1.547-.6-.141-1.244-2.072-.835-2.485a.407.407,0,0,1,.273-.127Zm-3.766.75a1.532,1.532,0,0,0-.8.222c-.73.448-.848,1.383-.331,2.558a1.708,1.708,0,0,0,1.462,1.215c1.344-.007,1.86-1.4,1.085-2.95a1.63,1.63,0,0,0-1.416-1.045Zm-.19.671a.729.729,0,0,1,.539.279,2.526,2.526,0,0,1,.437.787c.35,1,.164,1.688-.415,1.547-.6-.142-1.244-2.072-.835-2.485a.408.408,0,0,1,.273-.128Zm-3.746.743a1.533,1.533,0,0,0-.8.223c-.732.448-.85,1.382-.332,2.557a1.708,1.708,0,0,0,1.462,1.216c1.345-.007,1.86-1.4,1.085-2.951a1.629,1.629,0,0,0-1.415-1.045Zm-.192.672a.727.727,0,0,1,.54.278,2.526,2.526,0,0,1,.437.787c.35,1,.164,1.689-.414,1.547-.6-.141-1.244-2.072-.835-2.485a.407.407,0,0,1,.272-.127ZM6.7,11.659l-.708.515-.495.369.113.314.074.206.524-.316.4,1.112.4,1.122-.359.13-.337.12c.045.145.216.641.238.663l2.166-.778-.238-.663-.244.088-.443.159-.334-.93Zm15.664,1.33c.034,0,.049.047.064.135a3.308,3.308,0,0,1-.195.957,21.04,21.04,0,0,1-3.079,5.4l-.408.47.051-.667a3.253,3.253,0,0,0-.377-1.71c-.5-1.263-.533-1.73-.158-2.31a4.441,4.441,0,0,1,2.448-1.371,4.015,4.015,0,0,0,1.385-.664.974.974,0,0,1,.253-.235l.015,0Zm-6.429,1.477-.708.515-.495.37.113.314.074.2.523-.316.4,1.112.4,1.123-.359.129-.337.12c.045.145.216.642.238.664l2.166-.779-.238-.662-.244.087-.443.16-.334-.93ZM12.354,15.8a1.532,1.532,0,0,0-.8.223c-.731.448-.849,1.382-.332,2.558a1.708,1.708,0,0,0,1.462,1.215c1.345-.007,1.86-1.4,1.086-2.95A1.632,1.632,0,0,0,12.354,15.8Zm-.191.672a.73.73,0,0,1,.54.279,2.555,2.555,0,0,1,.437.787c.35,1,.164,1.688-.415,1.546-.6-.141-1.244-2.072-.835-2.485a.407.407,0,0,1,.273-.127Zm-3.515.616-.71.515-.494.37.113.313.074.206.524-.316.4,1.112.4,1.122-.36.13-.337.12c.045.145.216.642.238.664l2.166-.779-.238-.663-.244.088-.443.16-.334-.93Z" transform="translate(-1.227 0)" fill="#fff"/>
</svg>