<svg xmlns="http://www.w3.org/2000/svg" width="54.326" height="54.585" viewBox="0 0 54.326 54.585">
  <path id="iconmonstr-whatsapp-1" d="M.057,54.585,3.894,40.568A27.046,27.046,0,1,1,14.4,50.823L.057,54.585Zm15-8.659a22.428,22.428,0,1,0-6.239-6.066l-2.272,8.3,8.511-2.231ZM40.959,33.5c-.168-.282-.619-.45-1.3-.789s-4-1.974-4.619-2.2-1.069-.339-1.522.339-1.747,2.2-2.14,2.65-.789.507-1.465.168a18.446,18.446,0,0,1-5.436-3.355,20.345,20.345,0,0,1-3.76-4.683c-.393-.675-.041-1.042.3-1.378.3-.3.675-.789,1.014-1.185a4.433,4.433,0,0,0,.682-1.126,1.243,1.243,0,0,0-.057-1.185c-.171-.337-1.522-3.664-2.083-5.017-.55-1.317-1.108-1.139-1.522-1.16l-1.3-.023a2.476,2.476,0,0,0-1.8.846,7.584,7.584,0,0,0-2.365,5.638c0,3.327,2.422,6.541,2.759,6.991s4.765,7.278,11.545,10.205a39.106,39.106,0,0,0,3.853,1.424A9.29,9.29,0,0,0,36,39.929c1.3-.193,4-1.635,4.562-3.214a5.631,5.631,0,0,0,.393-3.216Z" transform="translate(-0.057)" fill="#fff"/>
</svg>